{"title":"TVF Pitchers Season 1 S01 1080p x264 + Extras","uid":15982357,"size":3996025006,"categoryP":"video","categoryS":"hd___tv_shows","magnet":"?xt=urn:btih:08e3f63d2be3e5fc99e0f4235a4cd4111915d3ae&amp;dn=TVF+Pitchers+Season+1+S01+1080p+x264+%2B+Extras&amp;tr=udp%3A%2F%2Ftracker.leechers-paradise.org%3A6969&amp;tr=udp%3A%2F%2Fzer0day.ch%3A1337&amp;tr=udp%3A%2F%2Fopen.demonii.com%3A1337&amp;tr=udp%3A%2F%2Ftracker.coppersurfer.tk%3A6969&amp;tr=udp%3A%2F%2Fexodus.desync.com%3A6969","seeders":1,"leechers":4,"uploader":"knight691","files":12,"time":1475915520,"description":"English subtitles included.\r\n\r\n4th and 5th episodes are 720p, but all episodes have excellent quality.\r\n\r\nMediainfo for S01E01\r\n\r\nGeneral\r\nFormat                                   : Matroska\r\nFormat version                           : Version 4 / Version 2\r\nFile size                                : 568 MiB\r\nDuration                                 : 39 min 20 s\r\nOverall bit rate                         : 2 020 kb/s\r\nEncoded date                             : UTC 2016-05-08 22:22:44\r\nWriting application                      : mkvmerge v9.1.0 ('Little Earthquakes') 64bit\r\nWriting library                          : libebml v1.3.3 + libmatroska v1.4.4\r\n\r\nVideo\r\nID                                       : 1\r\nFormat                                   : AVC\r\nFormat/Info                              : Advanced Video Codec\r\nFormat profile                           :   \r\nFormat settings, CABAC                   : Yes\r\nFormat settings, ReFrames                : 3 frames\r\nCodec ID                                 : V_MPEG4/ISO/AVC\r\nDuration                                 : 39 min 20 s\r\nBit rate                                 : 1 892 kb/s\r\nWidth                                    : 1 920 pixels\r\nHeight                                   : 1 080 pixels\r\nDisplay aspect ratio                     : 16:9\r\nFrame rate mode                          : Constant\r\nFrame rate                               : 25.000 FPS\r\nColor space                              : YUV\r\nChroma subsampling                       : 4:2:0\r\nBit depth                                : 8 bits\r\nScan type                                : Progressive\r\nBits/(Pixel*Frame)                       : 0.036\r\nStream size                              : 532 MiB (94%)\r\nDefault                                  : Yes\r\nForced                                   : No\r\n\r\nAudio\r\nID                                       : 2\r\nFormat                                   : AAC\r\nFormat/Info                              : Advanced Audio Codec\r\nFormat profile                           : LC\r\nCodec ID                                 : A_AAC\r\nDuration                                 : 39 min 20 s\r\nBit rate                                 : 126 kb/s\r\nChannel(s)                               : 2 channels\r\nChannel positions                        : Front: L R\r\nSampling rate                            : 44.1 kHz\r\nFrame rate                               : 43.066 FPS (1024 spf)\r\nCompression mode                         : Lossy\r\nStream size                              : 35.3 MiB (6%)\r\nLanguage                                 : Hindi\r\nDefault                                  : Yes\r\nForced                                   : No\r\n\r\nText\r\nID                                       : 3\r\nFormat                                   : UTF-8\r\nCodec ID                                 : S_TEXT/UTF8\r\nCodec ID/Info                            : UTF-8 Plain Text\r\nDuration                                 : 37 min 10 s\r\nBit rate                                 : 81 b/s\r\nCount of elements                        : 701\r\nStream size                              : 22.1 KiB (0%)\r\nLanguage                                 : English\r\nDefault                                  : Yes\r\nForced                                   : No","torrent":{"xt":"urn:btih:08e3f63d2be3e5fc99e0f4235a4cd4111915d3ae","amp;dn":"TVF+Pitchers+Season+1+S01+1080p+x264+%2B+Extras","amp;tr":["udp%3A%2F%2Ftracker.leechers-paradise.org%3A6969","udp%3A%2F%2Fzer0day.ch%3A1337","udp%3A%2F%2Fopen.demonii.com%3A1337","udp%3A%2F%2Ftracker.coppersurfer.tk%3A6969","udp%3A%2F%2Fexodus.desync.com%3A6969"],"infoHash":"08e3f63d2be3e5fc99e0f4235a4cd4111915d3ae","infoHashBuffer":{"type":"Buffer","data":[8,227,246,61,43,227,229,252,153,224,244,35,90,76,212,17,25,21,211,174]},"announce":[],"urlList":[]}}